<?xml version="1.0" standalone="no"?>
<!DOCTYPE svg PUBLIC "-//W3C//DTD SVG 20010904//EN"
 "http://www.w3.org/TR/2001/REC-SVG-20010904/DTD/svg10.dtd">
<svg version="1.0" xmlns="http://www.w3.org/2000/svg"
 width="700.000000pt" height="700.000000pt" viewBox="0 0 700.000000 700.000000"
 preserveAspectRatio="xMidYMid meet">
<metadata>
Created by potrace 1.11, written by Peter Selinger 2001-2013
</metadata>
<g transform="translate(0.000000,700.000000) scale(0.100000,-0.100000)"
fill="#000000" stroke="none">
<path d="M6452 5679 c-113 -21 -208 -101 -259 -218 -48 -111 -224 -460 -321
-637 -493 -899 -994 -1509 -1357 -1649 -58 -22 -175 -29 -213 -12 -171 73
-328 300 -482 697 -29 74 -68 176 -88 225 -66 171 -172 379 -252 496 -179 262
-370 415 -607 485 -94 28 -251 37 -360 21 -128 -18 -321 -100 -455 -193 -124
-86 -282 -232 -425 -394 -97 -109 -433 -579 -433 -606 0 -3 -13 -24 -29 -47
-36 -54 -171 -289 -250 -437 -132 -248 -277 -548 -413 -855 -44 -99 -86 -193
-93 -210 -80 -177 -245 -609 -251 -659 -4 -22 -7 -43 -7 -46 -3 -15 15 -113
26 -137 40 -91 94 -146 184 -189 47 -22 73 -27 138 -28 69 0 89 4 145 30 119
56 149 99 255 372 58 150 191 471 230 557 26 59 60 132 88 195 11 25 72 153
137 285 155 318 281 550 453 830 77 125 259 383 322 455 95 109 158 173 245
251 47 41 155 107 205 123 60 21 105 15 158 -21 108 -74 240 -283 335 -528
204 -527 286 -693 453 -915 140 -186 360 -358 529 -413 150 -49 162 -51 325
-51 166 0 226 10 372 64 100 37 295 142 363 197 8 6 51 40 95 74 93 73 313
290 406 400 96 114 99 117 170 209 198 254 444 635 664 1030 115 207 382 742
400 804 43 144 -12 305 -131 387 -83 57 -174 76 -272 58z"/>
</g>
</svg>
